<?xml version="1.0" standalone="no"?>
<!DOCTYPE svg PUBLIC "-//W3C//DTD SVG 20010904//EN"
 "http://www.w3.org/TR/2001/REC-SVG-20010904/DTD/svg10.dtd">
<svg version="1.0" xmlns="http://www.w3.org/2000/svg"
 width="600.000000pt" height="450.000000pt" viewBox="0 0 600.000000 450.000000"
 preserveAspectRatio="xMidYMid meet">

<g transform="translate(0.000000,450.000000) scale(0.100000,-0.100000)"
fill="#000000" stroke="none">
<path d="M1081 3302 c-19 -9 -44 -30 -55 -45 -21 -28 -21 -35 -24 -1062 l-2
-1034 -68 -44 c-287 -186 -272 -174 -264 -213 2 -14 15 -32 28 -40 28 -19 106
-20 1797 -16 l1237 2 0 300 0 300 -25 0 c-14 0 -24 3 -24 8 4 21 -3 32 -20 32
-11 0 -21 5 -23 10 -2 7 -15 6 -37 -2 -27 -10 -35 -10 -38 0 -3 6 -13 12 -24
12 -10 0 -19 7 -19 15 0 12 -17 15 -89 15 -106 0 -151 8 -151 26 0 10 -13 14
-44 14 -54 0 -76 8 -76 26 0 8 -10 14 -23 14 -29 0 -57 29 -57 59 l0 23 -497
-6 c-334 -3 -499 -8 -501 -16 -2 -5 -21 -10 -43 -10 -21 0 -39 -4 -39 -9 0 -4
-26 -11 -57 -14 -32 -3 -59 -11 -61 -17 -2 -5 -12 -10 -23 -10 -10 0 -19 -4
-19 -8 0 -9 -107 -42 -138 -42 -12 0 -22 -4 -22 -8 0 -5 -36 -15 -80 -22 -63
-11 -80 -17 -80 -31 0 -14 -7 -16 -45 -11 -25 2 -50 0 -57 -6 -7 -6 -31 -14
-53 -19 -30 -6 7 -9 140 -13 180 -6 180 -6 -82 -8 l-263 -2 0 839 c0 462 3
846 6 855 6 14 136 16 1380 16 l1374 0 0 -475 0 -475 188 2 c103 1 156 4 117
5 l-70 4 -4 358 -3 358 38 6 c22 4 240 7 487 7 l447 0 0 -820 0 -820 -300 0
-299 0 -4 -72 c-1 -40 -4 140 -5 400 -2 525 -2 520 -67 548 -50 20 -590 20
-640 0 -67 -28 -65 -5 -65 -710 0 -459 3 -642 12 -660 26 -59 36 -61 360 -64
254 -3 303 -1 331 13 58 27 67 56 67 209 l0 136 356 0 c387 0 408 3 433 56 8
18 11 284 11 969 l0 944 -24 28 -24 28 -589 5 -588 5 -5 52 c-3 31 -13 60 -25
74 -46 51 20 49 -1512 49 -1340 0 -1430 -1 -1462 -18z m3369 -1782 l0 -490
-325 0 -325 0 0 490 0 490 325 0 325 0 0 -490z m-2667 -67 c-13 -2 -33 -2 -45
0 -13 2 -3 4 22 4 25 0 35 -2 23 -4z m1630 0 c-45 -2 -122 -2 -170 0 -48 1
-11 3 82 3 94 0 133 -2 88 -3z m235 0 c-15 -2 -42 -2 -60 0 -18 2 -6 4 27 4
33 0 48 -2 33 -4z"/>
</g>
</svg>
